<svg width="150" height="60" xmlns="http://www.w3.org/2000/svg" version="1.0">
  <path d="M0 30.7v-2.4q0-7.8 2.6-11.6 2.7-3.9 7.7-3.9 3.7 0 6.1 3.2V.1h8.4v45h-7.6l-.3-3.2q-2.6 3.8-6.6 3.8-5 0-7.6-3.8Q.1 38.1 0 30.7zm8.3-2.5v2.2q0 4.7 1 6.5 1 1.9 3.4 1.9 2.5 0 3.7-2.2V22.1q-1.2-2.3-3.7-2.3-2.3 0-3.3 1.8-1 1.9-1 6.6h-.1zm33.2 17.5q-6.3 0-10-3.8Q28 38.1 28 31v-2.5q0-7.5 3.3-11.6 3.3-4 9.4-4 6 0 9 3.8t3 11.3v4H36.4q.1 3.6 1.5 5.2t4.3 1.6q4.1 0 7-2.8l3.2 5q-1.6 2.1-4.5 3.4-2.9 1.3-6.3 1.3h-.1zm-5.2-19.4h8.3v-.8q0-2.8-1-4.3-.8-1.5-3-1.5-2.1 0-3.1 1.6-1 1.5-1.2 5zM108.7 5.6h8.3v7.8h4.2v6.3H117v15.7q0 1.9.5 2.6.5.7 2 .7 1.2 0 2-.2l-.1 6.4q-2.2.8-4.6.8-8 0-8.1-9.2V19.7H105v-6.3h3.7V5.6zM133.3.1v16.1q2.7-3.4 6.6-3.4 4.4 0 6.6 3 2.3 3.1 2.3 9.2v20h-8.3V25q0-2.8-.9-4-.9-1.3-2.8-1.3-2.2 0-3.5 2V45H125V0h8.3v.1zM5 55.3h1.6v1H5v-1zm137.2 0h1.6v1h-1.6v-1zM9.6 51.9v7.8h1v-3.5h3v-.8h-3v-2.7h3.6v-.8H9.6zm4.9 0v7.8h4.6v-.8h-3.6V56h3v-.8h-3v-2.5H19v-.8h-4.5zm5.2 0v7.8h4.7v-.8h-3.7V56h3v-.8h-3v-2.5h3.6v-.8h-4.6zm5.3 0v7.8h2c.6 0 1.1 0 1.6-.2a3 3 0 0 0 1.1-.8c.3-.4.6-.8.7-1.3.2-.5.3-1 .3-1.6 0-1.3-.3-2.3-1-3-.6-.6-1.5-1-2.7-1l-2 .1zm1.9 7h-1v-6.2h1c.9 0 1.6.2 2 .8.5.5.7 1.3.7 2.3a4 4 0 0 1-.6 2.3c-.5.5-1.2.8-2.1.8zm7-2.2v3h1v-3l2.4-4.8h-1l-1 2.2-.4.8-.4.9-.5-.9-.3-.8-1-2.2h-1.1l2.3 4.8zm6.1 3.2a3.2 3.2 0 0 0 2.4-1.1c.4-.4.6-.8.8-1.3a5.7 5.7 0 0 0 0-3.4 4 4 0 0 0-.7-1.3 3 3 0 0 0-1.1-.8 3.4 3.4 0 0 0-2.7 0 3 3 0 0 0-1 .8c-.4.3-.6.8-.8 1.3l-.2 1.7c0 .6 0 1.2.2 1.7s.4 1 .7 1.3l1 .8 1.4.3zm0-.9a2 2 0 0 1-1.6-.9 2 2 0 0 1-.5-1 5 5 0 0 1-.2-1.3c0-.5 0-1 .2-1.4 0-.3.2-.7.5-1l.7-.6a2 2 0 0 1 1-.2 2 2 0 0 1 1.6.8l.5 1 .2 1.4c0 .5 0 .9-.2 1.3l-.5 1-.7.7a2 2 0 0 1-1 .2zm4-7.1v4.6c0 .6 0 1.1.2 1.6l.6 1 .9.6 1.1.2c.4 0 .8 0 1.1-.2a2 2 0 0 0 1-.6l.5-1c.2-.5.3-1 .3-1.6v-4.6h-1v4.6c0 .5 0 .9-.2 1.2 0 .3-.2.6-.3.8l-.6.4a2 2 0 0 1-.8.1l-.7-.1-.6-.4-.4-.8-.1-1.2v-4.6h-1zm6.7 0v7.8h1v-5.3l-.2-1.2 1 1.6 2.8 5h1v-8h-1v4.1l.1 1.3v1.2l-.8-1.6-2.9-5-1 .1zm6.2 3.9c0 .6.1 1.2.3 1.7.2.5.4 1 .7 1.3a3.6 3.6 0 0 0 2.5 1c.6 0 1 0 1.5-.2a3 3 0 0 0 1-.6v-3.3h-2.5v.8h1.7v2c-.1.2-.4.3-.6.4l-.8.1c-.4 0-.8 0-1.1-.2l-.8-.7a3 3 0 0 1-.5-1c-.2-.4-.2-.8-.2-1.3s0-1 .2-1.3c0-.4.3-.8.5-1a2.3 2.3 0 0 1 1.9-1c.4 0 .7.2 1 .3l.7.5.5-.6-.9-.7c-.3-.2-.8-.3-1.3-.3-.6 0-1 .1-1.5.3a3 3 0 0 0-1.1.8l-.8 1.3a5 5 0 0 0-.3 1.7h-.1zm8.2-4v8h2c.6 0 1.1-.2 1.6-.3a3 3 0 0 0 1.1-.8c.4-.4.6-.8.7-1.3.2-.5.3-1 .3-1.6 0-1.3-.3-2.3-1-3-.6-.6-1.5-1-2.7-1h-2zm1.9 7.1h-1v-6.2h1c1 0 1.6.2 2 .8.5.5.8 1.3.8 2.3a4 4 0 0 1-.7 2.3c-.5.5-1.2.8-2.1.8zm4.4-7v7.8h4.7v-.8h-3.7V56h3v-.8h-3v-2.5h3.5v-.8h-4.5zm8.6 4.6h-2.3l.3-1.2.4-1.3.4-1.3.4 1.3.4 1.3.4 1.2zm.3.8.7 2.4h1L79.4 52h-1l-2.7 7.8h1l.8-2.4 2.8-.1zm1.8-5.4v7.8h2c.6 0 1.2 0 1.6-.2a3 3 0 0 0 1.2-.8l.7-1.3.2-1.6c0-1.3-.3-2.3-1-3-.6-.6-1.5-1-2.7-1l-2 .1zm2 7h-1v-6.2h1c.8 0 1.5.2 2 .8.5.5.7 1.3.7 2.3 0 1-.2 1.7-.7 2.3-.5.5-1.2.8-2 .8zm9-2.4h-2.3l.4-1.2c0-.4.2-.8.4-1.3l.3-1.3.5 1.3c0 .5.2.9.4 1.3l.3 1.2zm.3.8.7 2.4h1.1l-2.7-7.8h-1l-2.7 7.8h1l.7-2.4h2.9zm1.9-5.4v7.8h.9v-5.3l-.1-1.2.9 1.6 2.8 5h1v-8h-.9v5.5l.1 1.2-.9-1.6-2.8-5h-1zm6.7 0v7.8h2c.6 0 1 0 1.5-.2a3 3 0 0 0 1.9-2c.2-.6.2-1.1.2-1.7 0-1.3-.3-2.3-1-3-.5-.6-1.5-1-2.7-1l-1.9.1zm1.9 7h-1v-6.2h1c.9 0 1.6.2 2 .8.5.5.7 1.3.7 2.3 0 1-.2 1.7-.7 2.3-.4.5-1.1.8-2 .8zm5.7-7v7.8h1v-3.5h3v-.8h-3v-2.7h3.6v-.8h-4.6zm4.8 0v4.6c0 .6.1 1.1.3 1.6.1.4.3.8.6 1 .2.3.5.5.9.6l1 .2c.5 0 .9 0 1.2-.2l.9-.6.6-1 .2-1.6v-4.6h-1v4.6l-.1 1.2-.4.8-.6.4a2 2 0 0 1-.7.1l-.7-.1c-.3-.1-.5-.2-.6-.4l-.4-.8-.2-1.2v-4.6h-1zm6.8 0v7.8h.9v-4a17.1 17.1 0 0 0-.1-2.5l.9 1.6 2.8 5h1v-8h-.9v5.5l.1 1.2-.9-1.6-2.8-5h-1zm6.7 0v7.8h.9v-5.3l-.1-1.2.9 1.6 2.8 5h1v-8h-.9v5.5l.1 1.2-.9-1.6-2.8-5h-1zm8 4.8v3h1v-3l2.3-4.8h-1l-1 2.2-.4.8-.4.9h-.1l-.4-.9-.4-.8-1-2.2h-1l2.4 4.8zM90.2 22.9 78.9 3 67.5 23 56 42.6h45.5L90.1 23zM64.9 32l4.6-8 4.7-8 4.6-8L88 24l-23.2 8z" />
</svg>